<svg width="405" height="50" xmlns="http://www.w3.org/2000/svg">
<polygon fill="#000" points="0,0 0,50 20,50 45,0"/>
<polygon fill="#000" points="47,0 22,50 50,50 75,0"/>
<polygon fill="#000" points="79,0 54,50 80,50 105,0"/>
<polygon fill="#000" points="111,0 86,50 110,50 135,0"/>
<polygon fill="#000" points="143,0 118,50 140,50 165,0"/>
<polygon fill="#000" points="175,0 150,50 170,50 195,0"/>
<polygon fill="#000" points="207,0 182,50 200,50 225,0"/>
<polygon fill="#000" points="239,0 214,50 230,50 255,0"/>
<polygon fill="#000" points="271,0 246,50 260,50 285,0"/>
<polygon fill="#000" points="303,0 278,50 290,50 315,0"/>
<polygon fill="#000" points="335,0 310,50 320,50 345,0"/>
<polygon fill="#000" points="367,0 342,50 350,50 375,0"/>
<polygon fill="#000" points="399,0 374,50 380,50 405,0"/>
</svg>